<svg width="45" height="45" viewBox="0 0 45 45" fill="none" xmlns="http://www.w3.org/2000/svg">
<circle cx="22.5" cy="22.5" r="22.5" fill="#FEFEFE"/>
<path d="M25.4218 37.6827C24.9334 37.6827 24.5367 37.286 24.5367 36.7976V35.1171C23.2443 34.3834 22.1204 33.4237 21.1905 32.2507C19.8277 32.4107 18.2026 32.4192 16.9571 32.0182C14.7903 31.3209 13.082 30.6021 13.5917 26.5628C13.8434 24.5687 16.136 24.1592 18.2602 24.219C18.2133 23.6559 18.1834 23.078 18.1834 22.4829H18.2218C18.1983 22.372 18.1834 22.2633 18.1834 22.1502C18.1834 19.559 24.3341 17.4604 31.9201 17.4604C35.4412 17.4604 38.6531 17.9126 41.0844 18.6569C39.2865 10.1389 31.7282 3.74289 22.6749 3.74289C12.2822 3.74289 3.85806 12.1671 3.85806 22.5597C3.85806 32.9524 12.2822 41.3765 22.6749 41.3765C26.8699 41.3765 30.7429 40.0031 33.8716 37.6827H25.4218Z" fill="#2C412C"/>
<path d="M15.9889 28.2263C15.9889 29.1071 16.8313 30.1479 19.0642 30.777C19.5291 30.9071 19.9216 30.9327 20.2649 30.8943C19.382 29.4036 18.7635 27.6547 18.4415 25.6799C18.3882 25.6692 18.3348 25.6585 18.2815 25.6479C16.1318 25.2533 15.9889 27.3455 15.9889 28.2284V28.2263Z" fill="#2C412C"/>
<path d="M26.196 23.9694C25.7993 23.9694 25.4431 23.69 25.3621 23.2848L25.3322 23.1398C25.2405 22.6791 25.5391 22.2313 25.9998 22.1396L36.8275 19.9749C36.9384 19.9536 37.0493 19.9749 37.141 20.0367C37.2348 20.0986 37.2967 20.1924 37.318 20.3033L37.5164 21.295C37.5377 21.4038 37.5164 21.5168 37.4545 21.6085C37.3927 21.7024 37.2988 21.7642 37.1879 21.7855L26.3602 23.9502C26.3047 23.9609 26.2493 23.9673 26.1938 23.9673L26.196 23.9694ZM36.9107 20.1818C36.8979 20.1818 36.8829 20.1818 36.8701 20.186L26.0424 22.3507C25.6969 22.419 25.473 22.7559 25.5434 23.1014L25.5732 23.2464C25.6415 23.5919 25.9784 23.8159 26.3239 23.7455L37.1517 21.5808C37.205 21.5701 37.2519 21.5382 37.2818 21.4934C37.3116 21.4486 37.3223 21.3931 37.3116 21.3398L37.1133 20.3481C37.1026 20.2948 37.0706 20.2479 37.0258 20.218C36.9917 20.1945 36.9533 20.1839 36.9128 20.1839L36.9107 20.1818Z" fill="#553A1A"/>
<path d="M33.0633 22.5384L32.7306 20.8706L36.8446 20.0474C37.0813 20.0005 37.3116 20.154 37.3585 20.3908L37.5206 21.1991C37.5675 21.4358 37.414 21.6661 37.1773 21.713L33.0633 22.5363V22.5384ZM32.9822 21.0391L33.2318 22.2889L37.1367 21.5083C37.2583 21.4848 37.3372 21.3654 37.3116 21.2438L37.1495 20.4355C37.1261 20.314 37.0066 20.2351 36.8851 20.2607L32.9801 21.0412L32.9822 21.0391Z" fill="#553A1A"/>
<path d="M26.2002 23.9716C26.0296 23.9716 25.859 23.914 25.7118 23.8031C25.5242 23.6623 25.3962 23.4533 25.3472 23.2145C25.2981 22.9756 25.3386 22.7325 25.4581 22.5299C25.5796 22.3251 25.7673 22.1865 25.9912 22.1438C26.4455 22.0543 26.8955 22.3848 26.9957 22.886C27.096 23.3851 26.8081 23.8671 26.3538 23.9566C26.3026 23.9673 26.2514 23.9716 26.2024 23.9716H26.2002ZM26.1405 22.34C26.1043 22.34 26.068 22.3443 26.0318 22.3507C25.8697 22.3827 25.731 22.4851 25.6415 22.6365C25.5498 22.7922 25.5199 22.982 25.5562 23.1697C25.5946 23.3573 25.6948 23.5216 25.8398 23.6303C25.9806 23.737 26.1491 23.7775 26.3111 23.7455C26.6502 23.6772 26.8635 23.3104 26.7867 22.9244C26.7185 22.581 26.4412 22.34 26.1427 22.34H26.1405Z" fill="#553A1A"/>
<path d="M32.227 21.0054L32.0178 21.0472L32.3383 22.6513L32.5475 22.6095L32.227 21.0054Z" fill="#553A1A"/>
<path d="M32.9443 20.8631L32.7351 20.9049L33.0557 22.5089L33.2648 22.4671L32.9443 20.8631Z" fill="#553A1A"/>
<path d="M31.4104 18.8659C25.778 18.8659 21.2097 20.2841 21.2097 22.0308C21.2097 23.7775 25.7758 25.1957 31.4104 25.1957C37.045 25.1957 41.6111 23.7775 41.6111 22.0308C41.6111 20.2841 37.045 18.8659 31.4104 18.8659ZM37.0408 21.728L26.5201 23.8777C26.4946 23.882 26.469 23.882 26.4434 23.8863C26.422 23.8927 26.4028 23.9012 26.3815 23.9076C25.9891 23.9886 25.5924 23.673 25.4986 23.2059C25.4026 22.7367 25.6436 22.2931 26.036 22.2121C26.0573 22.2078 26.0787 22.2078 26.1 22.2078C26.1256 22.2014 26.1469 22.1908 26.1725 22.1844L36.6931 20.0346C36.8701 19.9983 37.0429 20.0986 37.1047 20.2649C37.1303 20.3033 37.1474 20.3438 37.1581 20.3908L37.3265 21.2204C37.3351 21.2673 37.3351 21.3142 37.3265 21.3569C37.3351 21.5318 37.2156 21.6938 37.0386 21.7301L37.0408 21.728Z" fill="#553A1A"/>
<path d="M25.296 21.1415C25.2128 21.1415 25.1296 21.118 25.0571 21.0668C24.863 20.9346 24.8119 20.668 24.9441 20.4739C25.313 19.9322 25.0081 18.996 24.5858 17.7014C24.4621 17.3239 24.3363 16.9358 24.2083 16.505C23.6346 14.5664 24.9846 13.4893 25.7801 13.1908C25.9998 13.1076 26.2472 13.2185 26.3303 13.4403C26.4135 13.66 26.3026 13.9052 26.0829 13.9884C25.923 14.0502 24.5453 14.6389 25.0273 16.264C25.1509 16.682 25.2768 17.0659 25.3983 17.437C25.8953 18.964 26.2536 20.0666 25.65 20.9538C25.5668 21.0754 25.4325 21.1393 25.2981 21.1393L25.296 21.1415Z" fill="white"/>
<path d="M27.4159 19.0216C27.3327 19.0216 27.2495 18.9981 27.177 18.9469C26.9829 18.8147 26.9318 18.5481 27.064 18.354C27.4329 17.8123 27.128 16.8761 26.7057 15.5815C26.582 15.204 26.4562 14.8159 26.3282 14.3851C25.7545 12.4464 27.1045 11.3694 27.9 11.0709C28.1197 10.9877 28.3671 11.0986 28.4502 11.3204C28.5334 11.54 28.4225 11.7853 28.2028 11.8685C28.0429 11.9303 26.6652 12.519 27.1472 14.1441C27.2709 14.5621 27.3967 14.946 27.5182 15.3171C28.0152 16.8441 28.3756 17.9467 27.7699 18.8339C27.6867 18.9555 27.5524 19.0194 27.418 19.0194L27.4159 19.0216Z" fill="white"/>
<path d="M25.6927 16.505C25.5988 16.505 25.505 16.4751 25.4261 16.4111C25.2427 16.264 25.2128 15.9953 25.36 15.8118C25.6649 15.4301 25.4154 14.754 24.9483 13.5896C24.8268 13.2846 24.6882 12.9412 24.5538 12.5765C24.3299 11.9687 24.3427 11.4057 24.5901 10.9088C25.0294 10.0258 26.0573 9.70592 26.1021 9.691C26.3282 9.62275 26.5649 9.74858 26.6353 9.97465C26.7036 10.1986 26.5777 10.4374 26.3538 10.5057C26.341 10.51 25.6244 10.7403 25.3557 11.2905C25.2171 11.5742 25.2171 11.8983 25.3557 12.2801C25.4858 12.632 25.6159 12.9562 25.7417 13.2697C26.2536 14.5472 26.6588 15.5559 26.0275 16.3429C25.9422 16.4474 25.8185 16.5028 25.6948 16.5028L25.6927 16.505Z" fill="white"/>
<path d="M22.5 45C10.0941 45 0 34.9059 0 22.5C0 10.0941 10.0941 0 22.5 0C34.9059 0 45 10.0941 45 22.5C45 34.9059 34.9059 45 22.5 45ZM22.5 2.55924C11.5038 2.55924 2.55924 11.5038 2.55924 22.5C2.55924 33.4962 11.5038 42.4408 22.5 42.4408C33.4962 42.4408 42.4408 33.4962 42.4408 22.5C42.4408 11.5038 33.4962 2.55924 22.5 2.55924Z" fill="#553A1A"/>
<path d="M9.241 23.1825C9.19621 23.3488 9.12156 23.4896 9.02133 23.6026C8.92109 23.7156 8.81232 23.7839 8.69289 23.8073C8.61825 23.8223 8.5564 23.8137 8.50308 23.7882C8.4519 23.7604 8.41991 23.7199 8.40924 23.6623C8.39858 23.6069 8.41351 23.5514 8.4519 23.496C8.49028 23.4405 8.5436 23.3808 8.61185 23.319C8.68863 23.2507 8.74194 23.1867 8.77607 23.1249C8.80806 23.063 8.82725 23.0033 8.82938 22.9415C8.83152 22.8796 8.82299 22.805 8.80592 22.7133C8.78886 22.6173 8.75047 22.5299 8.69502 22.4552C8.63957 22.3784 8.56919 22.323 8.48602 22.2889C8.40284 22.2547 8.31114 22.2441 8.21303 22.2633C8.12559 22.2803 8.05521 22.3166 7.99976 22.3763C7.94431 22.436 7.90166 22.5085 7.86967 22.596C7.83768 22.6834 7.80569 22.7964 7.77583 22.9329C7.72251 23.1697 7.6436 23.3659 7.54123 23.5216C7.43886 23.6773 7.28104 23.7754 7.06777 23.8159C6.89289 23.8479 6.72654 23.8372 6.57299 23.7839C6.4173 23.7284 6.2872 23.6389 6.17844 23.5109C6.0718 23.3851 6.00142 23.2336 5.9673 23.0566C5.93957 22.9116 5.93957 22.7709 5.9673 22.6301C5.99502 22.4893 6.04194 22.372 6.11232 22.2782C6.18057 22.1844 6.26374 22.1268 6.35545 22.1097C6.43009 22.0969 6.49408 22.1055 6.54739 22.1353C6.60284 22.1673 6.63483 22.2142 6.64763 22.2761C6.66043 22.3464 6.6263 22.436 6.54313 22.5427C6.48555 22.6173 6.44502 22.6898 6.4173 22.7645C6.38957 22.8391 6.38531 22.9244 6.4045 23.0246C6.42156 23.1206 6.45569 23.2017 6.50687 23.2678C6.55592 23.336 6.61777 23.3851 6.68602 23.4149C6.75427 23.4448 6.83104 23.4533 6.90995 23.4384C7.01232 23.4192 7.09123 23.3552 7.14882 23.2486C7.2064 23.1419 7.25758 22.9991 7.3045 22.8199C7.35355 22.6344 7.40474 22.4808 7.45592 22.3571C7.50924 22.2355 7.58602 22.1289 7.68626 22.0372C7.78649 21.9455 7.91872 21.8836 8.08294 21.8517C8.26209 21.8175 8.43483 21.8303 8.60332 21.8922C8.7718 21.954 8.91469 22.0521 9.03412 22.1886C9.15355 22.3273 9.23033 22.4893 9.26445 22.6791C9.29645 22.8519 9.29005 23.0204 9.24526 23.1867L9.241 23.1825Z" fill="#BAA285"/>
<path d="M6.28294 17.7164C6.45356 17.6289 6.68602 17.6033 6.9782 17.6374C7.04218 17.646 7.13389 17.6609 7.25332 17.6865C7.37275 17.7121 7.47939 17.7334 7.56896 17.7547C7.65853 17.7761 7.72465 17.791 7.76517 17.7995C7.7801 17.8017 7.89526 17.8294 8.11066 17.8784C8.28768 17.9168 8.51801 17.9637 8.80379 18.0192L9.04692 18.0661C9.12796 18.0832 9.18768 18.1194 9.22607 18.1727C9.26446 18.2261 9.27938 18.2964 9.26872 18.3775C9.26232 18.4372 9.23247 18.4863 9.18128 18.5204C9.1301 18.5545 9.07038 18.5694 9.00213 18.563C8.97228 18.5588 8.8955 18.5396 8.77393 18.5033C8.65237 18.4671 8.55213 18.4351 8.47322 18.4073C8.31967 18.354 8.06801 18.2858 7.71825 18.2026C7.36848 18.1194 7.12749 18.0704 6.99953 18.0533C6.84171 18.0341 6.71161 18.0448 6.60711 18.0853C6.50261 18.1258 6.44502 18.1877 6.43649 18.273C6.42583 18.3668 6.46422 18.4713 6.55379 18.5865C6.64337 18.7017 6.77346 18.8168 6.94194 18.9341C7.11043 19.0493 7.3045 19.1559 7.52417 19.2519L7.93792 19.3457C8.11493 19.3841 8.34526 19.431 8.63104 19.4865L8.87417 19.5334C8.95308 19.5505 9.0128 19.5867 9.05119 19.64C9.08957 19.6934 9.10664 19.7595 9.09597 19.8363C9.08744 19.9045 9.05972 19.9557 9.00853 19.9898C8.95735 20.0239 8.8955 20.0367 8.82299 20.0282C8.80379 20.0261 8.7654 20.0154 8.70995 19.9983C8.6545 19.9813 8.61825 19.9685 8.60545 19.9642C8.48815 19.9237 8.34953 19.881 8.18957 19.8363C7.93152 19.7616 7.67559 19.6955 7.4218 19.6358C7.16801 19.5782 6.96967 19.5398 6.82678 19.5227C6.66896 19.5036 6.53886 19.5142 6.43436 19.5547C6.32986 19.5953 6.27228 19.655 6.26375 19.7382C6.25308 19.832 6.2936 19.9365 6.38318 20.0559C6.47488 20.1732 6.60711 20.2927 6.77986 20.41C6.95261 20.5273 7.14882 20.6339 7.37062 20.7299C7.73104 20.8109 8.10213 20.8877 8.48602 20.9602C8.63744 20.99 8.71635 21.0071 8.72275 21.0092C8.791 21.0242 8.84431 21.0583 8.8827 21.1116C8.92109 21.1649 8.93602 21.2332 8.92536 21.3185C8.91896 21.3782 8.8891 21.4273 8.83792 21.4614C8.78673 21.4976 8.72701 21.5104 8.65877 21.504C8.63104 21.4998 8.59052 21.4912 8.54147 21.4763C8.49029 21.4614 8.43697 21.4443 8.38152 21.4251C8.31327 21.4017 8.23436 21.3761 8.14265 21.3483C7.92512 21.2822 7.61161 21.2012 7.20213 21.1009C6.79479 21.0007 6.52607 20.9431 6.39597 20.9282C6.33626 20.9218 6.25308 20.9154 6.15071 20.9133C6.0654 20.909 6.00569 20.9047 5.97156 20.9005C5.88626 20.8898 5.82228 20.8642 5.77749 20.8237C5.7327 20.781 5.71351 20.7299 5.72204 20.6659C5.7327 20.572 5.77962 20.5081 5.86066 20.4803C5.94171 20.4505 6.05687 20.4441 6.20403 20.4633C6.28507 20.4718 6.38744 20.491 6.50901 20.5166C6.26161 20.3588 6.08247 20.2009 5.96943 20.0474C5.8564 19.8938 5.80948 19.7424 5.82654 19.5995C5.84787 19.4161 5.93957 19.2796 6.10166 19.1922C6.26375 19.1047 6.48341 19.0749 6.7628 19.1005C6.48768 18.932 6.2872 18.7678 6.16138 18.6036C6.03555 18.4393 5.9801 18.2837 5.99929 18.1301C6.02062 17.9403 6.11872 17.8017 6.28934 17.7164H6.28294Z" fill="#BAA285"/>
<path d="M9.52891 17.3538C9.38389 17.4391 9.21114 17.4818 9.0128 17.4775C8.81446 17.4732 8.60545 17.422 8.38365 17.3239C8.0936 17.196 7.82062 17.0168 7.56469 16.7865C7.30877 16.5562 7.12109 16.313 7.00166 16.055C6.88223 15.7948 6.86943 15.5602 6.96327 15.3469C7.03152 15.1912 7.15308 15.0782 7.32583 15.0057C7.49858 14.9332 7.71398 14.9118 7.96991 14.9396C8.22583 14.9673 8.50735 15.0505 8.81446 15.187C9.11517 15.3192 9.3583 15.4855 9.54811 15.686C9.73792 15.8865 9.85948 16.0998 9.9128 16.3258C9.96612 16.5519 9.94692 16.7716 9.85308 16.9806C9.78057 17.1448 9.6718 17.2685 9.52678 17.3538H9.52891ZM7.9827 15.3469C7.81422 15.3171 7.67559 15.3213 7.56469 15.3554C7.45379 15.3896 7.37702 15.4536 7.33649 15.5474C7.27465 15.6882 7.30237 15.846 7.41967 16.023C7.53697 16.2 7.70545 16.3685 7.92512 16.5306C8.14479 16.6927 8.36659 16.8227 8.59266 16.923C8.82939 17.0275 9.02133 17.0744 9.17062 17.0659C9.31991 17.0573 9.42654 16.9806 9.48839 16.8419C9.55024 16.7033 9.55237 16.554 9.49905 16.3941C9.4436 16.2341 9.33484 16.0763 9.17275 15.9249C9.01066 15.7735 8.80166 15.6412 8.54787 15.5282C8.341 15.4365 8.15332 15.3768 7.98484 15.3469H7.9827Z" fill="#BAA285"/>
<path d="M11.314 13.7538C11.3566 13.7559 11.4014 13.7751 11.4462 13.8071C11.5102 13.854 11.5571 13.9137 11.5827 13.9841C11.6083 14.0545 11.5998 14.1206 11.555 14.1803C11.4867 14.2742 11.3481 14.3339 11.1412 14.3595C10.9344 14.3851 10.7062 14.3744 10.4566 14.3254C10.2071 14.2784 9.99171 14.1995 9.81043 14.0908C9.87867 14.2806 9.94905 14.4469 10.0173 14.5898C10.0877 14.7327 10.1517 14.8457 10.2135 14.9289L10.3628 15.0505C10.4204 15.0974 10.4694 15.1379 10.5078 15.1699C10.5611 15.2168 10.591 15.2723 10.5974 15.3341C10.6038 15.3981 10.5846 15.4578 10.5419 15.5175C10.5036 15.5687 10.4524 15.5986 10.3841 15.6071C10.3159 15.6156 10.2562 15.5986 10.2028 15.5602C10.1559 15.5261 10.0706 15.4386 9.94052 15.2979C9.83389 15.1827 9.74218 15.0867 9.6654 15.0121C9.53104 14.882 9.30924 14.6773 9.00427 14.4L8.8955 14.2998C8.35592 13.8092 7.96564 13.4616 7.72678 13.2569C7.48792 13.0521 7.30237 12.9007 7.17441 12.8005C7.12536 12.76 7.09337 12.7344 7.0827 12.7258C7.03152 12.6789 7.00166 12.6235 6.99739 12.5637C6.991 12.5019 7.01019 12.4422 7.05498 12.3825C7.0955 12.327 7.14882 12.295 7.21493 12.2886C7.28104 12.2822 7.34289 12.2993 7.39834 12.3419C7.43247 12.3675 7.46446 12.3953 7.49431 12.4273C7.52417 12.4571 7.55829 12.4976 7.59882 12.5445C7.66706 12.6235 7.72251 12.6832 7.76303 12.7237C8.03602 12.9882 8.44763 13.3678 8.99787 13.8647C9.23886 14.0822 9.42867 14.2528 9.56943 14.3765C9.27299 13.7858 9.07251 13.2995 8.96374 12.9178C8.85498 12.536 8.84431 12.2886 8.93175 12.1692C8.97654 12.1095 9.03199 12.0775 9.09811 12.0711C9.16422 12.0647 9.23033 12.086 9.29431 12.1329C9.3455 12.1692 9.37749 12.2225 9.39242 12.2908C9.40735 12.359 9.41588 12.4592 9.42014 12.5893C9.42014 12.6043 9.42228 12.6405 9.42441 12.7002C9.42441 12.76 9.43081 12.8197 9.43934 12.8751C9.4564 13.0137 9.48412 13.1417 9.51825 13.2611C9.55237 13.3784 9.60142 13.5021 9.66114 13.6258C9.82962 13.7453 10.0109 13.8242 10.2028 13.8604C10.3948 13.8967 10.5761 13.9052 10.7467 13.8839C10.9173 13.8626 11.0623 13.8284 11.1818 13.7773C11.2308 13.7559 11.2756 13.7474 11.3204 13.7495L11.314 13.7538Z" fill="#BAA285"/>
<path d="M9.66967 10.655C9.61422 10.6507 9.5545 10.6187 9.49265 10.5547C9.46919 10.5313 9.44573 10.5057 9.42227 10.4737C9.3455 10.3756 9.30284 10.286 9.29431 10.2071C9.28578 10.1261 9.31137 10.0557 9.37109 9.99597C9.42654 9.94052 9.48199 9.91066 9.54171 9.90426C9.59929 9.89787 9.64621 9.91706 9.68246 9.96398C9.70379 9.99171 9.71659 10.013 9.72512 10.0322C9.73152 10.0493 9.73578 10.06 9.73791 10.0642C9.74645 10.0919 9.75924 10.1175 9.77417 10.141C9.7827 10.1538 9.80403 10.1794 9.83389 10.2135L9.89573 10.2839C9.92986 10.3287 9.94265 10.3756 9.93412 10.4246C9.92559 10.4716 9.89147 10.5249 9.83602 10.5825C9.7827 10.6358 9.72725 10.6614 9.6718 10.6571L9.66967 10.655ZM12.0284 13.5491C11.9666 13.5512 11.909 13.5256 11.8536 13.4701C11.828 13.4445 11.7832 13.3891 11.7235 13.3081C11.6637 13.227 11.6275 13.178 11.6168 13.163C11.5784 13.1097 11.523 13.0329 11.4505 12.937C11.3417 12.7962 11.218 12.6363 11.0773 12.4592C11.041 12.4123 11.0026 12.3633 10.9621 12.31C10.9216 12.2588 10.8768 12.2012 10.8299 12.1436C10.5803 11.8258 10.3393 11.5486 10.1047 11.3118C10.0472 11.2543 10.0173 11.1903 10.013 11.122C10.0109 11.0538 10.0365 10.9919 10.0898 10.9386C10.141 10.8874 10.1964 10.8618 10.2604 10.8597C10.3244 10.8576 10.382 10.8832 10.4353 10.9386C10.4694 10.9727 10.5164 11.0282 10.5739 11.1071C10.6336 11.186 10.6955 11.2692 10.7595 11.3609C10.7765 11.3865 10.8299 11.4569 10.9152 11.5742C11.0005 11.6915 11.0836 11.8024 11.169 11.9047C11.3545 12.1351 11.5443 12.3675 11.7405 12.6C11.9367 12.8325 12.0882 13.0031 12.1948 13.1097C12.246 13.1609 12.2716 13.2206 12.2716 13.2889C12.2716 13.3571 12.246 13.4211 12.1905 13.4765C12.1436 13.5235 12.0903 13.5469 12.0306 13.5491H12.0284Z" fill="#BAA285"/>
<path d="M12.7386 9.11303C12.9391 9.18341 13.131 9.34123 13.3123 9.58862C13.404 9.71232 13.5917 10.0237 13.8754 10.5227C13.9543 10.6592 14.0332 10.7915 14.1142 10.9173C14.1953 11.0431 14.2422 11.1178 14.2571 11.1412C14.2912 11.1924 14.3318 11.2564 14.3787 11.3332C14.4213 11.4036 14.4363 11.4718 14.4213 11.5379C14.4085 11.604 14.368 11.6595 14.3019 11.7085C14.2528 11.7448 14.1974 11.7554 14.1355 11.7427C14.0737 11.7299 14.0225 11.6957 13.982 11.6403C13.9713 11.6254 13.95 11.587 13.9244 11.5294C13.8967 11.4718 13.8796 11.4313 13.869 11.4121C13.8306 11.3246 13.7964 11.2521 13.7666 11.1924C13.6728 11.0069 13.5384 10.7573 13.3614 10.4396C13.1844 10.1239 13.0585 9.91706 12.986 9.81682C12.8836 9.6782 12.7834 9.59076 12.6853 9.5545C12.5851 9.51611 12.4912 9.53104 12.4038 9.59715C12.3036 9.6718 12.2332 9.7827 12.1927 9.92986C12.1521 10.077 12.1436 10.2498 12.1671 10.446C12.1884 10.6422 12.2396 10.8533 12.3206 11.0751C12.5595 11.4825 12.7727 11.8344 12.9604 12.1287C12.9903 12.1735 13.0287 12.2374 13.0777 12.3185C13.114 12.3782 13.1246 12.4422 13.1118 12.5062C13.0991 12.5701 13.0585 12.6277 12.9903 12.6789C12.9412 12.7152 12.8858 12.7258 12.8239 12.713C12.7621 12.7002 12.7109 12.6661 12.6704 12.6107C12.6469 12.5787 12.6085 12.504 12.5573 12.3889C12.5254 12.3078 12.487 12.2289 12.4464 12.1521C12.3483 11.9517 12.1948 11.668 11.9858 11.299C11.7768 10.9301 11.6382 10.6976 11.5678 10.6038C11.5209 10.5398 11.4569 10.4652 11.3758 10.382C11.3204 10.3244 11.282 10.2796 11.2564 10.2476C11.2052 10.1794 11.1818 10.1133 11.186 10.0493C11.1903 9.98531 11.218 9.93412 11.2692 9.89573C11.3225 9.85521 11.3758 9.84028 11.427 9.84455C11.4782 9.85095 11.5336 9.87867 11.5912 9.92986C11.6446 9.98104 11.6957 10.0386 11.7448 10.1026C11.7725 10.141 11.8237 10.2156 11.8941 10.3287C11.8109 9.7763 11.9026 9.40095 12.1692 9.20474C12.3462 9.07251 12.536 9.04265 12.7365 9.11303H12.7386Z" fill="#BAA285"/>
<path d="M15.5538 7.39834C15.6114 7.42393 15.6519 7.46232 15.6775 7.51564C15.7052 7.57322 15.7308 7.63507 15.7521 7.70332C15.7735 7.77156 15.8012 7.8654 15.8374 7.98483C15.8652 8.08934 15.8886 8.16825 15.9057 8.2173C15.9718 8.4263 16.0273 8.59052 16.0699 8.70995C16.1126 8.82938 16.1957 9.05332 16.3173 9.38175C16.5732 10.0642 16.746 10.5995 16.8313 10.9877C16.9166 11.3758 16.9251 11.6787 16.8547 11.8983C16.7844 12.118 16.6244 12.2908 16.377 12.4145C16.2491 12.4784 16.1019 12.5083 15.9355 12.5062C15.7692 12.504 15.6135 12.4656 15.4706 12.391C15.3256 12.3164 15.2211 12.214 15.155 12.0818C15.123 12.0199 15.1145 11.9538 15.1273 11.8834C15.14 11.813 15.172 11.7661 15.2211 11.7405C15.2595 11.7213 15.2957 11.7107 15.3256 11.7107C15.3555 11.7107 15.3853 11.7192 15.4152 11.7363C15.445 11.7533 15.4855 11.781 15.5346 11.8237C15.6348 11.9047 15.7479 11.9709 15.8716 12.022C15.9953 12.0732 16.1168 12.069 16.2384 12.0092C16.377 11.9389 16.4623 11.813 16.4922 11.6296C16.522 11.4462 16.5007 11.2009 16.4261 10.8896C16.3514 10.5782 16.2256 10.1943 16.0422 9.72938C16.0635 10.0258 16.0379 10.2839 15.9675 10.5078C15.895 10.7318 15.7777 10.8832 15.6178 10.9621C15.4791 11.0303 15.3363 11.0474 15.1891 11.009C15.0419 10.9727 14.8991 10.8853 14.7626 10.7488C14.6261 10.6123 14.5024 10.4353 14.3936 10.2156C14.2294 9.88507 14.1228 9.55237 14.078 9.21754C14.031 8.8827 14.0545 8.58412 14.1462 8.32393C14.2379 8.06374 14.4021 7.87393 14.6346 7.75877C14.7434 7.70545 14.85 7.68199 14.9566 7.69052C15.0633 7.69905 15.172 7.73744 15.2808 7.80569C15.2446 7.70758 15.2339 7.62654 15.2531 7.55616C15.2701 7.48791 15.3128 7.43673 15.381 7.40261C15.4429 7.37275 15.5005 7.37062 15.5581 7.39621L15.5538 7.39834ZM15.6924 10.2114C15.75 10.0429 15.7799 9.84242 15.7863 9.61422C15.7927 9.38602 15.7713 9.15995 15.7244 8.93815C15.7073 8.8955 15.6946 8.86351 15.686 8.84005C15.5645 8.54147 15.4685 8.30474 15.4024 8.13199C15.3896 8.14265 15.381 8.14905 15.3725 8.15332C15.3363 8.17038 15.2957 8.17038 15.2488 8.15332C15.1656 8.12133 15.0931 8.1 15.027 8.0936C14.963 8.0872 14.8969 8.1 14.8308 8.13412C14.6751 8.2109 14.5727 8.35806 14.5237 8.57346C14.4746 8.78886 14.4746 9.03199 14.5237 9.30498C14.5727 9.57583 14.6538 9.82962 14.7732 10.0664C14.8777 10.2775 14.9886 10.4225 15.1081 10.5036C15.2275 10.5846 15.3427 10.5974 15.4578 10.5398C15.5602 10.4886 15.6391 10.3799 15.6946 10.2092L15.6924 10.2114Z" fill="#BAA285"/>
<path d="M17.5991 9.95971C17.4284 9.93412 17.2791 9.8808 17.1555 9.7955C17.0296 9.71019 16.9486 9.60995 16.9123 9.49479C16.8889 9.42441 16.8889 9.36043 16.9081 9.30498C16.9294 9.24953 16.9656 9.21327 17.0211 9.19621C17.0744 9.17915 17.132 9.18554 17.1917 9.21753C17.2514 9.24953 17.3175 9.29431 17.3879 9.35403C17.4647 9.42014 17.5351 9.46706 17.6012 9.49265C17.6652 9.51824 17.7291 9.52678 17.7889 9.52251C17.8507 9.51611 17.9232 9.49905 18.0128 9.47133C18.1066 9.44147 18.1877 9.39455 18.2559 9.32844C18.3242 9.26232 18.3711 9.18768 18.3967 9.10024C18.4223 9.01279 18.4201 8.92109 18.3882 8.82725C18.3604 8.74194 18.3156 8.67583 18.2495 8.63104C18.1855 8.58412 18.1066 8.55 18.0149 8.52867C17.9232 8.50735 17.8081 8.49028 17.6694 8.47749C17.4284 8.45403 17.2237 8.40071 17.0573 8.31753C16.891 8.23436 16.7737 8.08934 16.7076 7.8846C16.6543 7.71398 16.6436 7.54976 16.6777 7.38768C16.7118 7.22559 16.7865 7.08483 16.8995 6.96327C17.0126 6.84171 17.1533 6.75213 17.3239 6.69881C17.4647 6.65403 17.6055 6.63697 17.7483 6.6455C17.8912 6.65403 18.0149 6.68815 18.1173 6.74573C18.2197 6.80332 18.2858 6.87583 18.3135 6.9654C18.337 7.03578 18.3348 7.10189 18.3135 7.15948C18.29 7.21706 18.2474 7.25758 18.1855 7.27678C18.1173 7.2981 18.0235 7.27678 17.9083 7.2064C17.8273 7.15948 17.7505 7.12749 17.6737 7.10829C17.5969 7.09123 17.5116 7.09763 17.4135 7.12749C17.3218 7.15734 17.245 7.2 17.1832 7.25971C17.1213 7.3173 17.0808 7.38341 17.0595 7.45592C17.0382 7.52843 17.0403 7.60308 17.0637 7.67986C17.0957 7.77796 17.1682 7.84834 17.2813 7.89313C17.3943 7.93578 17.5415 7.9699 17.7249 7.99336C17.9147 8.01896 18.0746 8.04881 18.2026 8.0872C18.3306 8.12559 18.4457 8.18744 18.5481 8.27488C18.6526 8.36232 18.7294 8.48602 18.7806 8.64597C18.836 8.81872 18.8446 8.9936 18.8062 9.16635C18.7678 9.34123 18.6867 9.49479 18.5652 9.62915C18.4436 9.76351 18.29 9.85948 18.1066 9.91919C17.9403 9.97251 17.7697 9.98744 17.5991 9.96185V9.95971Z" fill="#BAA285"/>
<path d="M21.1308 9.07678C20.99 8.99573 20.8749 8.86777 20.7853 8.69076C20.6957 8.51374 20.6382 8.29834 20.6126 8.03815C20.5784 7.67986 20.5955 7.33649 20.6637 7.01019C20.732 6.68389 20.8493 6.41303 21.0178 6.2019C21.1841 5.98863 21.391 5.87133 21.6384 5.84787C21.76 5.83507 21.8836 5.8628 22.0052 5.93104C22.1289 5.99716 22.2313 6.08886 22.3145 6.2019C22.3976 6.31493 22.4445 6.43223 22.4573 6.55166C22.4616 6.60498 22.4573 6.65403 22.4403 6.69881C22.4232 6.7436 22.4019 6.77986 22.372 6.80545C22.3422 6.83317 22.3123 6.8481 22.2782 6.85024C22.2398 6.8545 22.2036 6.84384 22.1737 6.81825C22.1438 6.79265 22.1161 6.75 22.0905 6.68815C22.0329 6.54526 21.9668 6.43863 21.8922 6.37038C21.8175 6.30213 21.7301 6.27227 21.6277 6.28294C21.4976 6.29573 21.3803 6.38531 21.278 6.55379C21.1756 6.72227 21.1009 6.93768 21.0562 7.20213C21.0114 7.46445 21.0007 7.73531 21.0284 8.01469C21.0519 8.26209 21.1116 8.4519 21.2076 8.57986C21.3036 8.70782 21.423 8.7654 21.568 8.75261C21.6896 8.73981 21.7941 8.69929 21.8858 8.62464C21.9775 8.55213 22.0607 8.42844 22.1396 8.25569C22.1694 8.18957 22.2036 8.14265 22.2419 8.11066C22.2803 8.08081 22.3251 8.06161 22.3763 8.05735C22.4232 8.05308 22.4637 8.07227 22.5021 8.11493C22.5384 8.15758 22.5597 8.21303 22.5661 8.27701C22.5789 8.40071 22.5384 8.53081 22.4488 8.66517C22.3592 8.79953 22.2377 8.91469 22.0863 9.00853C21.9327 9.10237 21.7749 9.15782 21.6107 9.17488C21.4336 9.19194 21.2737 9.15995 21.1329 9.07891L21.1308 9.07678Z" fill="#BAA285"/>
<path d="M25.4197 6.26374C25.4026 6.33412 25.3919 6.37678 25.3877 6.38744C25.3557 6.5154 25.3365 6.59644 25.3301 6.62843C25.281 6.85237 25.2235 7.17654 25.1573 7.59881C25.0912 8.02109 25.055 8.29621 25.0486 8.42417C25.0464 8.48175 25.0486 8.55426 25.0528 8.64384C25.0592 8.72915 25.0614 8.79526 25.0592 8.84005C25.0571 8.91682 25.0337 8.97867 24.991 9.02559C24.9483 9.07251 24.895 9.09384 24.8289 9.0917C24.7415 9.08744 24.6796 9.04905 24.6412 8.97654C24.605 8.90189 24.5879 8.80592 24.5922 8.68649C24.5964 8.58412 24.6071 8.46682 24.6242 8.3346C24.5026 8.56919 24.364 8.7526 24.2083 8.88483C24.0526 9.01706 23.8969 9.08104 23.7434 9.07464C23.5791 9.06824 23.4384 9.01493 23.3254 8.91469C23.2123 8.81445 23.127 8.66943 23.0737 8.47749C23.0182 8.28768 22.9969 8.05734 23.0076 7.78862C23.0225 7.4282 23.0929 7.09336 23.223 6.78199C23.3531 6.47061 23.5216 6.22535 23.7306 6.04621C23.9374 5.86706 24.1592 5.77962 24.396 5.79028C24.5175 5.79455 24.622 5.82654 24.7116 5.88412C24.8012 5.9417 24.878 6.02701 24.9419 6.14005C24.959 6.03981 24.991 5.96303 25.0401 5.91398C25.0891 5.86493 25.1552 5.84147 25.2341 5.8436C25.2938 5.84573 25.345 5.87133 25.3877 5.92251C25.4303 5.9737 25.4474 6.03128 25.4453 6.10166C25.4453 6.14005 25.4346 6.19336 25.4175 6.26374H25.4197ZM24.1401 8.46042C24.2659 8.34739 24.3853 8.19384 24.5005 8.00189C24.6156 7.80995 24.7073 7.60521 24.7777 7.38981L24.7991 7.25971C24.846 6.959 24.8801 6.70095 24.9036 6.48554C24.8908 6.48981 24.8758 6.49194 24.8609 6.49194C24.8225 6.49194 24.7863 6.47061 24.7521 6.43223C24.6967 6.36398 24.6412 6.31066 24.5858 6.27441C24.5303 6.23815 24.4685 6.21682 24.3938 6.21469C24.2403 6.20829 24.0889 6.2808 23.9417 6.43223C23.7946 6.58365 23.673 6.78625 23.577 7.03791C23.481 7.2917 23.4277 7.55829 23.4171 7.83768C23.4064 8.10213 23.4341 8.30047 23.4981 8.4263C23.5621 8.55426 23.6645 8.62038 23.8031 8.62464C23.9055 8.62891 24.0185 8.57346 24.1443 8.46042H24.1401Z" fill="#BAA285"/>
<path d="M28.5014 4.74526C28.5995 4.80924 28.6763 4.88389 28.7318 4.96706C28.7872 5.05024 28.8107 5.12488 28.7979 5.19313C28.7915 5.23792 28.7723 5.27844 28.7445 5.31896C28.7168 5.35948 28.6848 5.39147 28.6464 5.4128C28.6081 5.43626 28.5718 5.44265 28.5334 5.43626C28.5078 5.43199 28.4844 5.41706 28.4609 5.3936C28.4374 5.37014 28.4076 5.33389 28.3735 5.28697C28.3201 5.21659 28.2732 5.16114 28.2284 5.12062C28.1836 5.0801 28.1303 5.0545 28.0664 5.04384C27.8936 5.01398 27.7358 5.09076 27.5929 5.26991C27.45 5.44905 27.3242 5.7327 27.2218 6.12085L27.2111 6.16137C27.2538 6.16777 27.3242 6.17417 27.418 6.1827C27.6142 6.19976 27.7678 6.21683 27.8787 6.23602C27.9981 6.25521 28.0493 6.3128 28.0344 6.40877C28.0237 6.46848 27.9981 6.51967 27.9597 6.56232C27.9192 6.60498 27.8723 6.63483 27.8168 6.64976C27.7614 6.66683 27.7038 6.66896 27.6462 6.66043L27.3967 6.61564C27.3604 6.60711 27.3028 6.59645 27.2239 6.58365C27.1706 6.57512 27.1322 6.56872 27.1066 6.56659C27.0299 6.86303 26.9616 7.11469 26.9062 7.32583C26.8507 7.53697 26.8017 7.71398 26.7633 7.86114C26.7441 7.93365 26.71 8.05735 26.663 8.23436C26.6289 8.36232 26.5991 8.48815 26.5735 8.61185C26.5479 8.73555 26.5329 8.80806 26.5265 8.82938C26.5073 8.92962 26.4903 9.01066 26.4732 9.07251C26.4562 9.14289 26.4178 9.19194 26.3645 9.22393C26.309 9.25592 26.245 9.26659 26.1704 9.25379C26.1021 9.24313 26.0509 9.209 26.019 9.15355C25.987 9.0981 25.9742 9.03839 25.987 8.97228C25.9955 8.92322 26.0083 8.86991 26.0275 8.81446C26.0467 8.75901 26.0723 8.68649 26.1064 8.60119C26.1384 8.51588 26.1682 8.43697 26.1917 8.36446C26.2749 8.1128 26.3474 7.8654 26.4114 7.62654L26.6012 6.92915L26.71 6.53033L26.5351 6.51967C26.4092 6.5154 26.3218 6.50901 26.2727 6.50047C26.196 6.48768 26.1384 6.45995 26.0979 6.41517C26.0573 6.37038 26.0424 6.30853 26.0573 6.22749C26.0723 6.13792 26.1043 6.0718 26.1555 6.02701C26.2066 5.98223 26.2685 5.9673 26.341 5.9801C26.3773 5.98649 26.4412 6.00142 26.5287 6.02701C26.6289 6.05901 26.7291 6.0846 26.8294 6.10379L26.855 6.00782C27.0043 5.46611 27.1898 5.08649 27.4116 4.86896C27.6334 4.65142 27.8957 4.57038 28.1986 4.62156C28.3052 4.63863 28.4076 4.68128 28.5057 4.74526H28.5014Z" fill="#BAA285"/>
<path d="M29.5763 9.14289C29.6019 9.20047 29.604 9.26019 29.5848 9.3263C29.5507 9.43933 29.4633 9.53744 29.3204 9.62275C29.1775 9.70805 29.0133 9.76351 28.8299 9.79123C28.6443 9.81896 28.478 9.81042 28.3308 9.76777C28.1517 9.71445 28.0066 9.62061 27.9 9.48839C27.7934 9.35616 27.7294 9.19194 27.7059 8.99573C27.6825 8.79952 27.7081 8.58412 27.7806 8.34952C27.8787 8.02749 28.0301 7.72678 28.237 7.44739C28.4438 7.17014 28.6763 6.96114 28.9322 6.82038C29.1882 6.67962 29.4377 6.64763 29.6787 6.72014C29.8258 6.76493 29.9431 6.83744 30.0284 6.93554C30.1137 7.03578 30.1649 7.15521 30.1841 7.29597C30.2033 7.43673 30.1863 7.59028 30.1372 7.75877C30.0668 7.9891 29.9303 8.16611 29.7256 8.28768C29.5209 8.41137 29.2841 8.47962 29.0133 8.49881C28.7424 8.51587 28.4758 8.49028 28.2092 8.41777L28.1943 8.46682C28.1218 8.70569 28.1047 8.90829 28.1453 9.07464C28.1858 9.24099 28.2796 9.34763 28.4332 9.39242C28.5505 9.42867 28.672 9.42441 28.7979 9.37962C28.9237 9.33696 29.0645 9.23886 29.2223 9.08957C29.2543 9.05758 29.2884 9.03839 29.3289 9.02772C29.3694 9.01706 29.4078 9.01919 29.4505 9.03199C29.5081 9.04905 29.5507 9.08744 29.5763 9.14289ZM29.1007 7.19147C28.9578 7.27038 28.8213 7.38981 28.6912 7.54763C28.5611 7.70545 28.4481 7.88246 28.3521 8.07654C28.527 8.12133 28.7168 8.13625 28.9216 8.11919C29.1242 8.10213 29.3054 8.05095 29.4611 7.96564C29.619 7.88033 29.7192 7.76516 29.7618 7.62014C29.7832 7.54763 29.7874 7.47938 29.7725 7.41327C29.7576 7.34715 29.7277 7.28744 29.6829 7.23839C29.636 7.1872 29.5784 7.15308 29.5059 7.13175C29.378 7.09336 29.2436 7.11469 29.1007 7.19147Z" fill="#BAA285"/>
<path d="M30.0945 10.2604C29.9858 10.1261 29.9154 9.98531 29.8813 9.83815C29.8472 9.69099 29.8557 9.56303 29.9069 9.45213C29.9389 9.38389 29.9815 9.33697 30.0327 9.30924C30.0839 9.28152 30.1372 9.28152 30.1905 9.30498C30.2417 9.32844 30.278 9.37322 30.3014 9.4372C30.3249 9.50118 30.3419 9.58009 30.3526 9.66967C30.3633 9.77204 30.3846 9.85308 30.4145 9.91493C30.4443 9.97678 30.4848 10.028 30.5318 10.0642C30.5808 10.1026 30.6469 10.1389 30.7301 10.1794C30.8197 10.2199 30.9114 10.2412 31.0052 10.2391C31.0991 10.2391 31.1844 10.2135 31.2633 10.1666C31.3422 10.1197 31.4019 10.0514 31.4424 9.95972C31.4808 9.87867 31.4915 9.79976 31.4744 9.72085C31.4573 9.64194 31.4232 9.56517 31.372 9.48626C31.3187 9.40948 31.2462 9.31777 31.1545 9.21327C30.9924 9.03199 30.8794 8.85498 30.8133 8.68009C30.7472 8.50521 30.76 8.31967 30.8495 8.12559C30.9242 7.96351 31.0287 7.83554 31.1652 7.74171C31.2995 7.64787 31.4509 7.59242 31.6152 7.57962C31.7815 7.56682 31.9436 7.59668 32.1057 7.67346C32.2379 7.73531 32.3552 7.81848 32.4533 7.92299C32.5514 8.02749 32.6197 8.13412 32.6559 8.24502C32.6922 8.35592 32.69 8.45403 32.6517 8.54147C32.6197 8.60971 32.5749 8.65663 32.5173 8.68223C32.4597 8.70782 32.4021 8.70782 32.3446 8.68223C32.2784 8.65237 32.2272 8.57133 32.1889 8.44123C32.1611 8.35166 32.127 8.27488 32.0822 8.2109C32.0374 8.14692 31.9692 8.09147 31.8775 8.04881C31.79 8.00829 31.7047 7.9891 31.6194 7.9891C31.5363 7.9891 31.4616 8.01043 31.3955 8.05095C31.3294 8.09147 31.2803 8.14692 31.2462 8.21943C31.2036 8.31327 31.2078 8.41351 31.2611 8.52227C31.3145 8.63104 31.3998 8.75687 31.5192 8.89763C31.6429 9.04479 31.7389 9.17701 31.805 9.29005C31.8732 9.40521 31.9159 9.52891 31.9329 9.66327C31.95 9.79763 31.9223 9.94052 31.8519 10.0919C31.7751 10.2562 31.6642 10.3905 31.5171 10.4929C31.3699 10.5953 31.2057 10.6528 31.0265 10.6699C30.8453 10.687 30.6682 10.6528 30.4934 10.5718C30.3334 10.4972 30.2012 10.3927 30.0924 10.2604H30.0945Z" fill="#BAA285"/>
<path d="M17.8315 37.4417C18.0171 38.4569 18.8936 39.1457 18.1663 39.278C17.4391 39.4102 16.7012 38.6957 16.5156 37.6806C16.3301 36.6654 16.7694 35.7377 17.4967 35.6054C18.2239 35.4732 17.646 36.4287 17.8315 37.4417Z" fill="#674C2F"/>
<path d="M18.7081 37.2817C18.5225 36.2666 17.7803 35.5543 18.3732 35.4455C18.9661 35.3367 19.5974 36.0725 19.7808 37.0855C19.9664 38.1007 19.6337 39.0092 19.0408 39.118C18.4479 39.2268 18.8915 38.2948 18.7059 37.2817H18.7081Z" fill="#674C2F"/>
<path d="M11.99 34.1979C12.2225 35.469 13.3209 36.3348 12.4102 36.5012C11.4995 36.6675 10.5718 35.7697 10.3415 34.4986C10.1111 33.2275 10.6614 32.0609 11.572 31.8967C12.4827 31.7325 11.7597 32.9268 11.9922 34.2L11.99 34.1979Z" fill="#A8957C"/>
<path d="M13.0905 33.9974C12.8581 32.7263 11.9282 31.8306 12.6704 31.6941C13.4126 31.5576 14.2038 32.4789 14.4363 33.7521C14.6687 35.0254 14.2528 36.1642 13.5085 36.3007C12.7642 36.4372 13.3209 35.2706 13.0884 33.9974H13.0905Z" fill="#A8957C"/>
</svg>
